<svg width="78" height="70" viewBox="0 0 78 70" fill="none" xmlns="http://www.w3.org/2000/svg">
<g clip-path="url(#clip0_336_548)">
<path d="M69.1847 5.04871C73.9036 5.04871 77.7402 8.90974 77.7402 13.6737V17.9862H0.740234V13.6737C0.740234 8.90974 4.57018 5.04871 9.29579 5.04871H69.1847ZM77.7402 56.7987C77.7402 61.5559 73.9036 65.4237 69.1847 65.4237H9.29579C4.57018 65.4237 0.740234 61.5559 0.740234 56.7987V30.9237H77.7402V56.7987ZM15.7125 48.1737C14.5361 48.1737 13.5736 49.144 13.5736 50.33C13.5736 51.5159 14.5361 52.4862 15.7125 52.4862H24.268C25.4444 52.4862 26.4069 51.5159 26.4069 50.33C26.4069 49.144 25.4444 48.1737 24.268 48.1737H15.7125ZM32.8236 52.4862H49.9347C51.1111 52.4862 52.0736 51.5159 52.0736 50.33C52.0736 49.144 51.1111 48.1737 49.9347 48.1737H32.8236C31.6472 48.1737 30.6847 49.144 30.6847 50.33C30.6847 51.5159 31.6472 52.4862 32.8236 52.4862Z" fill="#141414"/>
</g>
<defs>
<clipPath id="clip0_336_548">
<rect width="77" height="69" fill="white" transform="translate(0.740234 0.736206)"/>
</clipPath>
</defs>
</svg>
