<svg width="22" height="23" viewBox="0 0 22 23" fill="none" xmlns="http://www.w3.org/2000/svg">
<g clip-path="url(#clip0_326_50)">
<path d="M16.5 4.23999V0.11499H11.6875C10.5484 0.11499 9.625 1.03839 9.625 2.17749V14.5525C9.625 15.6916 10.5484 16.615 11.6875 16.615H19.9375C21.0766 16.615 22 15.6916 22 14.5525V5.61499H17.9137C17.1187 5.61499 16.5 4.99624 16.5 4.23999ZM17.875 0.11499V4.23999H22L17.875 0.11499ZM8.25 15.24V5.61499H2.0625C0.923398 5.61499 0 6.53839 0 7.67749V20.0525C0 21.1916 0.923398 22.115 2.0625 22.115H10.3125C11.4516 22.115 12.375 21.1916 12.375 20.0525V17.99H11C9.4832 17.99 8.25 16.7568 8.25 15.24Z" fill="white"/>
</g>
<defs>
<clipPath id="clip0_326_50">
<rect width="22" height="22" fill="white" transform="translate(0 0.11499)"/>
</clipPath>
</defs>
</svg>
